<?xml version="1.0" encoding="UTF-8"?>
<svg xmlns="http://www.w3.org/2000/svg" viewBox="0 0 298.812497 96.473247">
  <g id="leftCluster" transform="translate(-4.5714,-4.5714) scale(0.102679)">
    <g id="pinsDarkLockup" fill="#000000">
      <path d="M 400.000,64.000 H 400.000 A 28.000,28.000 0 0 1 428.000,92.000 V 176.000 L 428.000,176.000 H 372.000 L 372.000,176.000 V 92.000 A 28.000,28.000 0 0 1 400.000,64.000 Z" /><path d="M 624.000,64.000 H 624.000 A 28.000,28.000 0 0 1 652.000,92.000 V 176.000 L 652.000,176.000 H 596.000 L 596.000,176.000 V 92.000 A 28.000,28.000 0 0 1 624.000,64.000 Z" /><path d="M 372.000,848.000 H 428.000 L 428.000,848.000 V 932.000 A 28.000,28.000 0 0 1 400.000,960.000 H 400.000 A 28.000,28.000 0 0 1 372.000,932.000 V 848.000 L 372.000,848.000 Z" /><path d="M 596.000,848.000 H 652.000 L 652.000,848.000 V 932.000 A 28.000,28.000 0 0 1 624.000,960.000 H 624.000 A 28.000,28.000 0 0 1 596.000,932.000 V 848.000 L 596.000,848.000 Z" /><path d="M 92.000,372.000 H 176.000 L 176.000,372.000 V 428.000 L 176.000,428.000 H 92.000 A 28.000,28.000 0 0 1 64.000,400.000 V 400.000 A 28.000,28.000 0 0 1 92.000,372.000 Z" /><path d="M 92.000,596.000 H 176.000 L 176.000,596.000 V 652.000 L 176.000,652.000 H 92.000 A 28.000,28.000 0 0 1 64.000,624.000 V 624.000 A 28.000,28.000 0 0 1 92.000,596.000 Z" /><path d="M 848.000,372.000 H 932.000 A 28.000,28.000 0 0 1 960.000,400.000 V 400.000 A 28.000,28.000 0 0 1 932.000,428.000 H 848.000 L 848.000,428.000 V 372.000 L 848.000,372.000 Z" /><path d="M 848.000,596.000 H 932.000 A 28.000,28.000 0 0 1 960.000,624.000 V 624.000 A 28.000,28.000 0 0 1 932.000,652.000 H 848.000 L 848.000,652.000 V 596.000 L 848.000,596.000 Z" />
    </g>
    <g id="mybox">
      <rect x="160" y="160" width="704" height="704" rx="140" fill="#000000" />
      <g id="embeddedArt" transform="translate(224.000,409.319) scale(0.616702) translate(-0.000,-0.000)">
        <path fill="#ffffff" opacity="1.000000" stroke="none" d=" M466.718933,217.749832   C453.304535,240.822678 439.554260,263.299988 427.064789,286.457245   C421.357025,297.040344 405.320770,296.293732 399.713013,286.634338   C362.572144,222.658783 324.730225,159.090210 287.117004,95.388893   C286.439209,94.240967 285.526733,93.166588 285.130188,91.927788   C281.496582,80.576180 273.666443,78.389305 262.311829,78.609398   C220.502853,79.419815 178.670807,79.093597 136.847443,79.089355   C108.519882,79.086479 80.192322,78.911026 51.864792,78.803596   C43.898636,78.773384 41.404060,76.382805 41.304333,68.343567   C41.200981,60.012348 41.207012,51.677364 41.330135,43.346462   C41.443970,35.644238 44.073101,33.127388 51.569809,33.121460   C112.399544,33.073376 173.229279,33.015778 234.059021,32.978512   C254.710358,32.965858 275.363495,33.158382 296.011963,32.921879   C302.112122,32.852013 305.763794,35.143024 308.758911,40.430325   C341.935944,98.998505 375.295715,157.463181 408.618347,215.948868   C409.661438,217.779663 410.836639,219.535202 412.376862,222.011810   C417.306152,213.558914 421.812836,205.841873 426.309021,198.118668   C456.651276,145.998718 487.075439,93.926003 517.221252,41.692657   C520.826416,35.446007 524.967346,32.591888 532.339294,32.981827   C543.294189,33.561287 554.302429,33.131924 566.212219,33.131924   C562.804077,41.781906 560.231445,50.233574 556.275269,57.978573   C545.909668,78.271317 535.337280,98.480171 524.122437,118.312553   C505.344208,151.520050 486.002563,184.408997 466.718933,217.749832  z" />
<path fill="#ffffff" opacity="1.000000" stroke="none" d=" M815.148438,91.473602   C797.720032,88.526054 783.781006,93.524673 773.759338,107.858910   C768.699219,115.096527 767.470703,123.462593 767.483521,132.138657   C767.555115,180.637299 767.555725,229.136032 767.577271,277.634735   C767.577942,279.134033 767.723389,280.662567 767.488037,282.127106   C766.803711,286.385254 764.625977,289.184113 759.916504,289.185059   C750.416809,289.186951 740.916870,289.222687 731.417542,289.164124   C727.024292,289.137054 724.732056,286.552429 724.113220,282.432190   C723.843445,280.636047 723.991150,278.773651 723.989685,276.941284   C723.952209,229.275818 723.946533,181.610306 723.874329,133.944901   C723.844543,114.302582 714.522644,99.899948 697.855896,93.446777   C680.225708,86.620567 660.360718,92.347527 649.418945,107.784081   C647.195862,110.920349 644.923767,111.961632 641.223755,111.903168   C628.093140,111.695686 614.957214,111.822227 601.105286,111.822227   C604.431580,99.616745 609.697693,89.101334 618.006775,78.987007   C601.929321,78.987007 587.202820,78.987007 571.999390,78.987007   C572.590698,77.294739 572.923828,76.048355 573.447449,74.887924   C579.189270,62.164349 585.039124,49.488621 590.659851,36.712006   C591.815552,34.085026 593.090637,32.960182 596.119080,33.005638   C608.282471,33.188194 620.450623,33.020260 632.616760,33.064171   C639.141113,33.087719 641.608643,35.598061 641.691467,42.166321   C641.756287,47.307076 641.704407,52.449295 641.704407,58.216129   C680.390625,39.968197 714.563293,45.439411 744.907288,75.226250   C745.831665,74.369591 746.782043,73.513985 747.705078,72.629776   C770.175476,51.104729 796.487671,42.280094 827.022583,50.212353   C857.696838,58.180790 877.717346,77.987953 886.737793,108.344643   C888.886414,115.575562 889.869141,123.404320 889.916748,130.967361   C890.226501,180.130875 890.130615,229.296951 890.166138,278.462189   C890.172302,286.955566 887.964783,289.226929 879.678467,289.227478   C871.845337,289.227997 864.012146,289.231384 856.179199,289.191711   C848.308228,289.151825 846.051941,286.957367 846.043396,279.070923   C845.992310,231.738831 845.930237,184.406631 845.998474,137.074661   C846.012329,127.461136 845.463867,118.106644 840.283142,109.593094   C834.524963,100.130608 826.347534,94.103264 815.148438,91.473602  z" />
<path fill="#ffffff" opacity="1.000000" stroke="none" d=" M151.097504,201.135315   C140.108154,215.599228 129.332809,229.777206 117.781548,244.976135   C120.424194,245.109436 122.086708,245.267685 123.749092,245.266296   C169.574661,245.227951 215.400238,245.165115 261.225800,245.128571   C270.166962,245.121445 272.569366,247.482666 272.609619,256.280640   C272.645416,264.112305 272.634125,271.944733 272.568939,279.776215   C272.503632,287.622772 270.277313,289.986237 262.417389,290.002380   C224.924072,290.079346 187.430557,290.062073 149.937119,290.080231   C122.441772,290.093536 94.945915,290.021637 67.451378,290.177826   C59.087360,290.225311 52.277512,287.767303 48.400440,279.976074   C44.499783,272.137451 46.023964,265.042328 51.368999,258.137970   C87.781227,211.103027 124.072166,163.974014 160.290787,116.789825   C162.365799,114.086571 164.485718,113.128059 167.789093,113.157318   C184.078018,113.301613 200.368927,113.222939 218.108032,113.222939   C195.374237,143.046066 173.342880,171.947723 151.097504,201.135315  z" />
<path fill="#ffffff" opacity="1.000000" stroke="none" d=" M598.313599,280.711884   C598.311890,236.005814 598.311890,191.765564 598.311890,147.177048   C612.885315,147.177048 626.941589,147.177048 641.459900,147.177048   C641.557800,148.636642 641.738220,150.074738 641.738403,151.512863   C641.743835,194.956223 641.739685,238.399597 641.714722,281.842957   C641.710144,289.848297 639.643188,291.954620 631.778137,292.005737   C624.288269,292.054443 616.797668,292.046906 609.307739,292.007812   C600.476318,291.961731 598.580139,290.065765 598.313599,280.711884  z" />
      </g>
    </g>
  </g>
  <g class="st0">
    <path d="M115.566911,53.998204l13.211456-15.690249v-4.689672h-22.617623v5.895538h12.876479l-13.184631,15.676919v4.689672h23.488513v-5.882208h-13.774193Z"/>
    <path d="M140.033611,30.777688c-.803993-.683365-1.849077-1.018342-3.148829-1.018342-1.326494,0-2.384991.348389-3.175571,1.071909-.777087.710108-1.179124,1.607904-1.179124,2.679812s.402037,1.969623,1.179124,2.693225c.790581.736932,1.849077,1.098733,3.175571,1.098733,1.326576,0,2.385072-.375213,3.175571-1.125557.777169-.750344,1.179124-1.688295,1.179124-2.81377,0-1.058578-.401956-1.916056-1.205867-2.586009ZM133.320668,39.513821v20.366591h7.128311v-20.366591h-7.128311Z"/>
    <path d="M146.116756,32.050534v27.829878h7.128311v-27.829878h-7.128311Z"/>
    <polygon points="182.468418 59.88691 173.839418 59.88691 168.184972 52.758599 166.041155 54.942653 166.041155 59.88691 158.912844 59.88691 158.912844 32.057032 166.041155 32.057032 166.041155 46.595063 173.316835 39.520319 181.758228 39.520319 173.316835 48.269946 182.468418 59.88691"/>
    <path d="M211.544399,39.513821l-4.314541,12.420957-4.207325-12.420957h-6.029578l-4.368026,12.353978-4.153758-12.353978h-6.712861l7.168466,20.366591h6.940704l3.979482-11.121205,3.818782,11.121205h6.900468l7.248938-20.366591h-6.270751Z"/>
    <path d="M240.714101,44.257141c-.991518-1.58108-2.358248-2.827264-4.086698-3.738391-1.741862-.897714-3.724897-1.339906-5.949187-1.339906-2.224208,0-4.207325.442192-5.922363,1.339906-1.728531.911126-3.09518,2.157311-4.073367,3.738391-.991518,1.594492-1.487276,3.403332-1.487276,5.453428,0,2.036602.495759,3.845524,1.487276,5.426604.978187,1.594492,2.344836,2.840595,4.073367,3.738309,1.715037.897714,3.698154,1.339906,5.922363,1.339906,2.22429,0,4.207325-.442192,5.949187-1.339906,1.72845-.897714,3.09518-2.143817,4.086698-3.738309.991518-1.58108,1.487358-3.390002,1.487358-5.426604,0-2.050096-.495841-3.858936-1.487358-5.453428ZM234.376371,52.323321c-.388543.737014-.897714,1.299752-1.540925,1.674883-.643129.375213-1.353237.562819-2.157229.562819-.803911,0-1.514101-.187606-2.157229-.562819-.643129-.375131-1.1523-.937869-1.540925-1.674883-.388543-.736932-.57615-1.621234-.57615-2.639576,0-1.058578.187606-1.929468.57615-2.626246.388625-.710108.897796-1.246103,1.540925-1.621234.643129-.375213,1.353318-.562819,2.157229-.562819.803993,0,1.514101.187606,2.157229.562819.643211.375131,1.152381.911126,1.540925,1.621234.388543.696777.57615,1.567667.57615,2.626246,0,1.018342-.187606,1.902644-.57615,2.639576Z"/>
    <path d="M255.225309,40.331226c-.736932.428698-1.380143.978105-1.889232,1.648058v-2.465463h-6.820159v20.366591h7.114899v-9.339107c0-1.768686.455604-3.055025,1.353318-3.845524.911126-.790581,2.076838-1.179124,3.537372-1.179124.241173,0,.495759,0,.750344.01333.241173.013412.535913.053649.857478.093803v-6.444946c-1.929468,0-3.564115.388625-4.904021,1.152381Z"/>
    <path d="M297.740506,43.118172c-.710108-1.326494-1.688295-2.318012-2.934398-2.96114-1.232691-.656623-2.639576-.978187-4.207243-.978187-1.902726,0-3.591021.469016-5.051473,1.420297-.763756.495759-1.433709,1.098733-2.009859,1.782098-.468934-.72352-1.031754-1.326494-1.72845-1.79551-1.366731-.937869-2.988046-1.406885-4.837124-1.406885-1.594492,0-3.054944.375213-4.354695,1.125557-.629717.361801-1.192454.817323-1.688295,1.339906v-2.130487h-6.820077v20.366591h7.128311v-10.049297c0-1.071909.14737-1.94288.468934-2.612833.308234-.656541.736932-1.1523,1.286339-1.473864.549326-.334977,1.165712-.495759,1.835665-.495759.978105,0,1.741862.334977,2.277857,1.00493.535913.656541.803911,1.715037.803911,3.162159v10.464664h7.128311v-10.049297c0-1.071909.14737-1.94288.455604-2.612833.29474-.656541.710108-1.1523,1.246103-1.473864.549326-.334977,1.165712-.495759,1.862407-.495759.951363,0,1.701707.334977,2.251114,1.00493.549326.656541.830735,1.715037.830735,3.162159v10.464664h7.128311v-11.630376c0-2.103663-.361801-3.80537-1.07199-5.131864Z"/>
  </g>
</svg>
